<svg xmlns="http://www.w3.org/2000/svg" width="64" height="64"><g fill="none" fill-rule="evenodd"><path fill="#e0193e" d="M59.582 32.093c0-15.377-12.46-23.483-27.834-23.483-15.371 0-27.832 8.106-27.832 23.483 0 3.078.52 6.03 1.44 8.798h-.013s8.92 28.18 26.405 19.045c17.487 9.136 26.406-19.045 26.406-19.045h-.013a27.78 27.78 0 0 0 1.44-8.798"/><path fill="#BC395B" d="M59.582 32.093c0-9.672-4.936-16.464-12.42-20.174 4.51 3.927 7.285 9.524 7.285 16.749 0 3.078-.52 6.03-1.441 8.8h.013s-6.954 21.935-20.608 20.806c-.571.803-1.25 1.553-1.976 2.272.433-.186.868-.378 1.313-.61 17.487 9.136 26.406-19.045 26.406-19.045h-.013a27.78 27.78 0 0 0 1.44-8.798"/><path fill="#454849" d="M31.749 25.623c-6.831 0-9.738-3.575-9.859-3.728a1.916 1.916 0 1 1 3.005-2.379c.06.069 1.989 2.273 6.854 2.273s6.793-2.204 6.873-2.298c.678-.797 1.88-.916 2.687-.255.806.665.946 1.838.299 2.659-.121.153-3.028 3.728-9.859 3.728"/><path fill="#454849" d="M31.749 58.02c.305 0 .61.072.887.216 3.514 1.838 6.753 2.1 9.893.801 8.393-3.463 13.137-16.764 13.735-18.531.015-.075.035-.148.06-.22a25.884 25.884 0 0 0 1.34-8.193c0-15.92-13.96-21.566-25.915-21.566-11.955 0-25.916 5.647-25.916 21.566 0 2.76.45 5.518 1.341 8.192.025.073.044.148.06.22.601 1.774 5.367 15.084 13.739 18.536 3.142 1.29 6.375 1.03 9.889-.805.278-.144.582-.217.887-.217m6.814 5.66c-2.233 0-4.509-.534-6.814-1.606-4.21 1.957-8.322 2.132-12.244.508C8.922 58.213 3.73 42.152 3.516 41.47a1.76 1.76 0 0 1-.051-.198A29.73 29.73 0 0 1 2 32.092C2 16.9 13.956 6.694 31.749 6.694s29.748 10.207 29.748 25.4c0 3.095-.492 6.181-1.464 9.181-.013.065-.03.13-.052.196-.214.682-5.405 16.743-15.988 21.111-1.774.733-3.587 1.099-5.43 1.099"/><path fill="#454849" d="M31.746 25.621a1.912 1.912 0 0 1-1.828-1.35c-.169-.544-4.003-13.451 6.302-23.204a1.92 1.92 0 0 1 2.71.075c.726.77.691 1.984-.077 2.712-8.542 8.081-5.41 18.838-5.271 19.29a1.92 1.92 0 0 1-1.836 2.477"/><path fill="#3BB777" d="M11.042 5.018c21.12-6.67 20.124 10.47 20.124 10.47S17.71 26.144 11.042 5.017"/><path fill="#229857" d="m11.042 5.018 20.124 10.47S17.71 26.144 11.042 5.017"/><path fill="#454849" d="M13.504 6.298c1.995 5.397 4.624 8.633 7.832 9.63 3.272 1.023 6.486-.58 7.898-1.446-.102-1.652-.642-5.204-3.351-7.299-2.66-2.054-6.816-2.352-12.379-.885M23.55 20.093c-1.064 0-2.177-.144-3.311-.493-4.85-1.487-8.56-6.199-11.022-14.006a1.916 1.916 0 0 1 1.25-2.405c7.804-2.461 13.79-2.132 17.79.985 5.19 4.04 4.839 11.123 4.822 11.426a1.914 1.914 0 0 1-.725 1.39c-.191.151-3.983 3.103-8.804 3.103"/><path fill="#FEFEFE" d="M25.556 32.363c-6.842 0-10.474-4.89-10.629-5.104a1.436 1.436 0 0 1 2.323-1.692c.14.187 3.154 4.167 8.812 3.91.8-.098 1.464.58 1.498 1.374a1.436 1.436 0 0 1-1.372 1.497c-.214.01-.425.015-.632.015M14.36 20.771c.792.671.891 1.858.219 2.65a1.877 1.877 0 0 1-2.648.22 1.88 1.88 0 0 1 2.43-2.87"/></g></svg>